<svg width="476" height="395" viewBox="0 0 476 395" fill="none" xmlns="http://www.w3.org/2000/svg">
<path d="M299.247 373.151C396.411 373.151 475.177 294.384 475.177 197.221C475.177 100.057 396.411 21.2909 299.247 21.2909C202.084 21.2909 123.317 100.057 123.317 197.221C123.317 294.384 202.084 373.151 299.247 373.151Z" fill="#FFD561"/>
<path d="M158.508 87.7609L138.528 123.601L77.3377 99.7509L10.5977 73.7509L14.3677 56.0209C14.3677 56.0209 35.9277 62.7709 36.0177 62.1809C36.6677 57.6209 18.4177 43.6109 19.3977 36.7709C20.2877 30.5409 25.3677 3.33091 25.9177 1.42091C26.6077 -0.959088 37.9677 3.27091 39.7077 13.0409C41.2677 21.8209 42.5277 45.6209 54.4777 50.6209C56.5777 51.4909 70.3377 56.4409 87.1877 62.4609C117.748 73.3609 158.508 87.7609 158.508 87.7609Z" fill="white"/>
<path d="M138.748 124.221L10.0176 74.0609L13.9876 55.3809L14.5076 55.5409C21.6776 57.7809 33.0976 61.2409 35.5076 61.6709C35.2376 59.6909 31.8276 55.8609 28.5176 52.1509C23.5076 46.5209 18.3176 40.7009 18.8876 36.7009C19.7876 30.3909 24.8476 3.2909 25.4176 1.2809C25.5376 0.870905 25.9676 0.210905 27.4576 0.280905C31.1476 0.480905 38.7676 5.00091 40.1776 12.9609C40.4176 14.3009 40.6376 15.9509 40.9076 17.8709C42.3476 28.4009 44.7676 46.0309 54.6476 50.1709C56.4576 50.9209 67.1476 54.7909 87.3276 62.0009C117.538 72.7709 158.238 87.1609 158.648 87.3009L159.208 87.5009L138.748 124.221ZM11.1676 73.4309L138.298 122.971L157.778 88.0309C152.768 86.2609 115.298 73.0109 87.0176 62.9309C66.8176 55.7109 56.1076 51.8409 54.2876 51.0809C43.8776 46.7209 41.4076 28.7409 39.9376 18.0009C39.6776 16.0909 39.4476 14.4509 39.2176 13.1309C37.9076 5.8009 30.7376 1.4509 27.4276 1.2809C26.8676 1.2509 26.4576 1.3609 26.4076 1.5609C25.8576 3.4709 20.7676 30.8209 19.9076 36.8409C19.3976 40.3809 24.6576 46.2809 29.2876 51.4809C33.3476 56.0309 36.8476 59.9709 36.5276 62.2509L36.4976 62.4809L36.2876 62.6209C36.0476 62.7809 35.4576 63.1309 14.7576 56.6609L11.1676 73.4309Z" fill="#505052"/>
<path d="M69.8977 75.1609C69.6977 75.7509 80.1777 84.6909 77.3377 99.7509L66.0377 95.3509L28.0077 80.5309C28.0077 80.5309 28.0077 80.5309 27.9977 80.5309L10.5977 73.7509L14.3677 56.0209C14.3677 56.0209 35.9277 62.7709 36.0177 62.1809C36.6677 57.6209 18.4177 43.6109 19.3977 36.7709C20.2877 30.5409 25.3677 3.33091 25.9177 1.42091C26.6077 -0.959088 37.9677 3.27091 39.7077 13.0409C41.2677 21.8209 42.5277 45.6209 54.4777 50.6209C56.5777 51.4909 70.3377 56.4409 87.1877 62.4609C82.9877 72.1509 70.0877 74.5909 69.8977 75.1609Z" fill="#FF6D54"/>
<path d="M77.7176 100.431L10.0176 74.0609L13.9876 55.3809L14.5076 55.5409C21.6776 57.7809 33.0976 61.2409 35.5076 61.6709C35.2376 59.6909 31.8276 55.8609 28.5176 52.1509C23.5076 46.5209 18.3176 40.7009 18.8876 36.7009C19.7876 30.3909 24.8476 3.2909 25.4176 1.2809C25.5376 0.870905 25.9676 0.210905 27.4576 0.280905C31.1476 0.480905 38.7676 5.00091 40.1776 12.9609C40.4176 14.3009 40.6376 15.9509 40.9076 17.8709C42.3476 28.4009 44.7676 46.0309 54.6476 50.1709C56.4576 50.9209 67.1476 54.7909 87.3276 62.0009L87.8276 62.1809L87.6176 62.6709C84.1576 70.6409 74.9476 73.8409 71.4776 75.0409C71.1476 75.1609 70.8076 75.2709 70.5576 75.3709C70.6776 75.5309 70.8476 75.7309 71.0076 75.9209C73.2776 78.7109 80.1876 87.2009 77.7976 99.8509L77.7176 100.431ZM28.0876 80.0309L28.1876 80.0609L76.9476 99.0609C78.9276 87.1909 72.4176 79.2009 70.2576 76.5409C69.5076 75.6109 69.2976 75.3609 69.4176 75.0009C69.5376 74.6509 69.8176 74.5609 71.1776 74.0809C74.4576 72.9409 83.0576 69.9609 86.5076 62.7409C66.6376 55.6409 56.0976 51.8209 54.2876 51.0709C43.8776 46.7109 41.4076 28.7309 39.9376 17.9909C39.6776 16.0809 39.4476 14.4409 39.2176 13.1209C37.9076 5.79091 30.7376 1.4409 27.4276 1.2709C26.8676 1.2409 26.4576 1.35091 26.4076 1.55091C25.8576 3.46091 20.7676 30.8109 19.9076 36.8309C19.3976 40.3709 24.6576 46.2709 29.2876 51.4709C33.3476 56.0209 36.8476 59.9609 36.5276 62.2409L36.4976 62.4709L36.2876 62.6109C36.0476 62.7709 35.4576 63.1209 14.7576 56.6509L11.1876 73.4309L28.0876 80.0309Z" fill="#505052"/>
<path d="M55.7778 84.4209C55.7778 84.5609 61.9178 90.6609 66.0378 94.7309L28.0078 79.9109C31.9078 79.7509 41.5178 79.3209 41.7678 78.8809C42.0178 78.4709 38.9078 64.1609 39.1678 64.3309C39.8178 64.7709 48.4478 73.4609 48.7178 73.4609C48.9878 73.4609 59.5778 63.4609 60.2278 63.7909C60.6178 63.9909 55.8778 77.1409 56.1078 77.3609C56.2678 77.5309 66.8878 80.0809 66.9678 80.5109C67.0678 81.1109 55.9378 83.8809 55.7778 84.4209Z" fill="#FFD561"/>
<path d="M148.158 94.0309L164.788 100.281L119.518 149.481L70.9977 202.171L55.8577 192.201C55.8577 192.201 69.9977 174.581 69.4777 174.281C65.4677 172.011 45.7777 183.911 39.7577 180.501C34.2777 177.401 10.7877 162.761 9.20773 161.551C7.23773 160.041 15.3177 151.001 25.0477 152.941C33.7977 154.691 56.4177 162.181 65.4277 152.871C67.0077 151.231 76.6277 140.221 88.3677 126.721C95.7777 118.201 102.388 110.571 107.878 104.241C117.848 92.7409 133.918 88.6709 148.158 94.0309Z" fill="white"/>
<path d="M71.0678 202.821L55.1178 192.321L55.4578 191.891C60.1578 186.031 67.5378 176.651 68.8178 174.561C66.8778 174.091 62.0678 175.871 57.3978 177.601C50.3278 180.221 43.0178 182.931 39.5078 180.941C33.9578 177.801 10.5578 163.221 8.90782 161.951C8.56782 161.691 8.09782 161.051 8.71782 159.691C10.2478 156.331 17.2378 150.881 25.1578 152.461C26.4878 152.731 28.1078 153.121 29.9878 153.571C40.3278 156.061 57.6278 160.231 65.0778 152.531C66.4278 151.131 73.9278 142.581 87.9978 126.401C95.3978 117.881 102.018 110.251 107.498 103.921C117.548 92.3209 133.958 88.1509 148.338 93.5609L165.658 100.071L71.0678 202.821ZM56.5878 192.081L70.9178 201.511L119.158 149.141L163.928 100.491L147.998 94.5009C134.018 89.2409 118.048 93.2909 108.268 104.581C102.788 110.911 96.1678 118.541 88.7578 127.061C74.6678 143.251 67.1578 151.811 65.7978 153.231C57.9478 161.341 40.2978 157.081 29.7578 154.541C27.8878 154.091 26.2678 153.701 24.9578 153.441C17.6478 151.981 10.9978 157.081 9.62782 160.111C9.39782 160.621 9.34782 161.041 9.51782 161.171C11.0978 162.381 34.7078 177.081 40.0078 180.081C43.1178 181.841 50.5278 179.101 57.0578 176.671C62.7778 174.551 67.7178 172.721 69.7178 173.851L69.9178 173.961L69.9778 174.211C70.0278 174.491 70.1578 175.151 56.5878 192.081Z" fill="#505052"/>
<path d="M93.8977 147.451C94.3777 147.851 106.518 141.351 119.508 149.481L111.298 158.401L83.6477 188.421C83.6477 188.421 83.6477 188.421 83.6477 188.431L70.9977 202.171L55.8577 192.201C55.8577 192.201 69.9977 174.581 69.4777 174.281C65.4677 172.011 45.7777 183.911 39.7577 180.501C34.2777 177.401 10.7877 162.761 9.20773 161.551C7.23773 160.041 15.3177 151.001 25.0477 152.941C33.7977 154.691 56.4177 162.181 65.4277 152.871C67.0077 151.231 76.6277 140.221 88.3677 126.721C95.8677 134.161 93.4377 147.071 93.8977 147.451Z" fill="#FF6D54"/>
<path d="M71.0678 202.821L55.1178 192.321L55.4578 191.891C60.1578 186.031 67.5378 176.651 68.8178 174.561C66.8778 174.091 62.0678 175.871 57.3978 177.601C50.3278 180.221 43.0178 182.931 39.5078 180.941C33.9578 177.801 10.5578 163.221 8.90782 161.951C8.56782 161.691 8.09782 161.051 8.71782 159.691C10.2478 156.331 17.2378 150.881 25.1578 152.461C26.4878 152.731 28.1078 153.121 29.9878 153.571C40.3278 156.061 57.6278 160.231 65.0778 152.531C66.4278 151.131 73.9278 142.581 87.9978 126.401L88.3478 126.001L88.7278 126.381C94.8878 132.501 94.5178 142.251 94.3678 145.921C94.3578 146.271 94.3378 146.631 94.3378 146.901C94.5278 146.841 94.7778 146.761 95.0178 146.691C98.4378 145.591 108.868 142.251 119.778 149.081L120.288 149.401L111.668 158.761L71.0678 202.821ZM56.5878 192.081L70.9178 201.511L118.738 149.591C108.408 143.431 98.5878 146.571 95.3278 147.621C94.1978 147.991 93.8878 148.091 93.5878 147.831C93.3078 147.601 93.3178 147.261 93.3778 145.861C93.5078 142.391 93.8678 133.291 88.3978 127.461C74.5378 143.391 67.1478 151.821 65.7978 153.221C57.9478 161.331 40.2978 157.071 29.7578 154.531C27.8878 154.081 26.2678 153.691 24.9578 153.431C17.6478 151.971 10.9978 157.071 9.62782 160.101C9.39782 160.611 9.34782 161.031 9.51782 161.161C11.0978 162.371 34.7078 177.071 40.0078 180.071C43.1178 181.831 50.5278 179.091 57.0578 176.661C62.7778 174.541 67.7178 172.711 69.7178 173.841L69.9178 173.951L69.9778 174.201C70.0278 174.491 70.1578 175.151 56.5878 192.081Z" fill="#505052"/>
<path d="M97.7578 163.581C97.8878 163.631 105.808 160.131 111.098 157.781L83.4478 187.801C84.7178 184.111 87.8178 175.001 87.4978 174.611C87.2078 174.231 72.7478 171.911 72.9978 171.731C73.6478 171.291 84.8778 166.411 84.9778 166.161C85.0778 165.911 79.6178 152.401 80.1678 151.921C80.4978 151.631 91.0178 160.831 91.3078 160.701C91.5278 160.611 97.7678 151.651 98.1978 151.731C98.7878 151.861 97.3078 163.241 97.7578 163.581Z" fill="#FFD561"/>
<path d="M294.438 240.841V391.551C294.438 393.331 292.988 394.781 291.198 394.781H3.73759C1.70759 394.781 0.177594 392.951 0.547594 390.961L6.84759 357.121C7.13759 355.581 8.47759 354.471 10.0276 354.471H38.0276C39.6176 354.471 40.9776 353.311 41.2176 351.741L46.6576 317.241C46.9076 315.671 48.2676 314.511 49.8576 314.511H81.5676C83.1176 314.511 84.4476 313.421 84.7476 311.901L91.5376 277.371C91.8376 275.861 93.1676 274.761 94.7076 274.761H126.578C128.108 274.761 129.418 273.701 129.748 272.211L136.708 240.151C137.028 238.671 138.348 237.611 139.868 237.611H291.198C292.988 237.611 294.438 239.051 294.438 240.841Z" fill="#A2E6CB"/>
<path d="M294.438 240.841V391.551C294.438 393.331 292.988 394.781 291.198 394.781H207.558L238.548 237.611H291.198C292.988 237.611 294.438 239.051 294.438 240.841Z" fill="#FF6D54"/>
<path d="M230.808 275.261H126.578C126.298 275.261 126.078 275.041 126.078 274.761C126.078 274.481 126.298 274.261 126.578 274.261H230.808C231.088 274.261 231.308 274.481 231.308 274.761C231.308 275.041 231.078 275.261 230.808 275.261Z" fill="#505052"/>
<path d="M223.017 315.001H81.5674C81.2874 315.001 81.0674 314.781 81.0674 314.501C81.0674 314.221 81.2874 314.001 81.5674 314.001H223.017C223.297 314.001 223.517 314.221 223.517 314.501C223.517 314.781 223.287 315.001 223.017 315.001Z" fill="#505052"/>
<path d="M221.928 108.171L202.488 141.171C201.928 142.121 200.758 142.541 199.718 142.161L161.168 128.001C149.328 123.651 136.078 128.581 129.948 139.611L158.508 87.7609L221.928 108.171Z" fill="#A2E6CB"/>
<path d="M200.508 142.801C200.188 142.801 199.858 142.741 199.548 142.631L160.998 128.471C149.318 124.181 136.438 128.961 130.388 139.851L129.508 139.371L158.268 87.1609L158.658 87.2909L222.678 107.891L202.918 141.431C202.398 142.291 201.478 142.801 200.508 142.801ZM152.258 125.901C155.278 125.901 158.348 126.431 161.338 127.531L199.888 141.691C200.698 141.991 201.618 141.661 202.058 140.921L221.178 108.461L158.748 88.3709L133.828 133.611C138.718 128.651 145.358 125.901 152.258 125.901Z" fill="#505052"/>
<path d="M261.648 58.7509L219.698 56.5309C211.308 56.0909 203.198 59.5809 197.758 65.9709L174.788 92.9609L189.778 97.8509L184.238 107.301L215.188 118.701L266.668 82.5409L270.738 75.0509C274.598 67.9309 269.738 59.2109 261.648 58.7509Z" fill="#FF6D54"/>
<path d="M215.268 119.261L183.508 107.561L189.038 98.1309L173.928 93.2009L197.378 65.6409C202.888 59.1709 211.228 55.5809 219.728 56.0209L261.678 58.2409C265.648 58.4609 269.178 60.6709 271.108 64.1509C273.038 67.6309 273.068 71.7909 271.168 75.2809L267.048 82.8709L266.948 82.9409L215.268 119.261ZM184.978 107.041L215.118 118.151L266.278 82.2109L270.288 74.8209C272.018 71.6309 271.998 67.8309 270.228 64.6509C268.458 61.4709 265.238 59.4609 261.608 59.2509L219.668 57.0309C211.478 56.6009 203.438 60.0609 198.138 66.3009L175.658 92.7209L190.528 97.5709L184.978 107.041Z" fill="#505052"/>
<path d="M266.678 82.5509L211.068 166.161C209.788 168.091 207.378 168.921 205.178 168.191L131.308 143.111C129.858 142.621 129.218 140.941 129.948 139.611C136.078 128.581 149.328 123.651 161.168 128.001L199.718 142.161C200.758 142.541 201.928 142.121 202.488 141.171L221.928 108.171L221.938 108.151C222.418 107.231 239.688 74.2009 266.678 82.5509Z" fill="#A2E6CB"/>
<path d="M206.788 168.951C206.198 168.951 205.598 168.861 205.018 168.661L131.148 143.581C130.318 143.301 129.668 142.671 129.348 141.861C129.028 141.041 129.088 140.131 129.508 139.371C135.798 128.041 149.188 123.071 161.338 127.531L199.888 141.691C200.698 141.991 201.618 141.661 202.058 140.921L221.498 107.921C222.228 106.521 239.708 73.6809 266.828 82.0809L267.468 82.2809L267.098 82.8409L211.488 166.451C210.418 168.031 208.638 168.951 206.788 168.951ZM152.258 126.901C143.378 126.901 134.938 131.641 130.378 139.851C130.098 140.361 130.058 140.961 130.268 141.501C130.478 142.041 130.908 142.451 131.458 142.641L205.328 167.721C207.298 168.381 209.488 167.621 210.638 165.891L265.878 82.8409C239.908 75.4109 223.078 107.021 222.368 108.381L202.908 141.421C202.228 142.581 200.808 143.091 199.538 142.631L160.988 128.471C158.118 127.411 155.158 126.901 152.258 126.901Z" fill="#505052"/>
<path d="M189.787 98.3509C189.697 98.3509 189.597 98.3209 189.507 98.2709C189.277 98.1209 189.217 97.8109 189.367 97.5809L206.527 71.6309C206.677 71.4009 206.987 71.3409 207.217 71.4909C207.447 71.6409 207.507 71.9509 207.357 72.1809L190.197 98.1309C190.107 98.2709 189.947 98.3509 189.787 98.3509Z" fill="#505052"/>
<path d="M250.377 80.2609L255.627 134.321C256.717 145.781 266.347 154.541 277.857 154.541H313.797C315.557 154.541 317.057 153.261 317.347 151.531L322.037 122.881C322.397 120.691 320.707 118.711 318.487 118.711H285.887C285.887 118.711 282.187 86.9909 280.567 76.4709C278.827 65.1809 271.527 59.0809 261.647 58.7609" fill="#FF6D54"/>
<path d="M313.798 155.041H277.858C266.017 155.041 256.247 146.151 255.127 134.371L249.877 80.3109C249.847 80.0409 250.048 79.7909 250.328 79.7609C250.588 79.7409 250.847 79.9309 250.877 80.2109L256.127 134.271C257.197 145.541 266.537 154.041 277.867 154.041H313.807C315.327 154.041 316.618 152.951 316.857 151.451L321.548 122.801C321.698 121.901 321.437 120.991 320.847 120.301C320.257 119.611 319.398 119.211 318.488 119.211H285.447L285.397 118.771C285.357 118.451 281.678 86.9409 280.078 76.5409C278.438 65.8809 271.717 59.5809 261.637 59.2509C261.357 59.2409 261.147 59.0109 261.157 58.7309C261.167 58.4509 261.397 58.2309 261.677 58.2509C272.287 58.5909 279.358 65.2009 281.078 76.3809C282.577 86.1109 285.897 114.321 286.347 118.201H318.497C319.697 118.201 320.837 118.731 321.617 119.641C322.397 120.561 322.737 121.761 322.537 122.951L317.847 151.601C317.517 153.601 315.818 155.041 313.798 155.041Z" fill="#505052"/>
<path d="M285.888 119.201C284.388 119.201 279.458 118.781 278.718 113.391C278.678 113.121 278.868 112.861 279.148 112.831C279.418 112.791 279.678 112.981 279.708 113.261C280.328 117.721 284.238 118.201 285.888 118.201C286.168 118.201 286.388 118.421 286.388 118.701C286.388 118.981 286.168 119.201 285.888 119.201Z" fill="#505052"/>
<path d="M306.808 144.851C305.978 149.931 309.898 154.541 315.048 154.541H355.158C358.768 154.541 362.038 153.751 362.248 150.411C362.468 146.931 358.168 145.971 358.558 145.851C359.458 145.581 364.018 144.441 364.748 141.181C365.478 137.941 361.138 137.211 361.598 137.051C362.248 136.831 366.158 135.961 366.488 132.491C366.728 129.891 364.428 128.471 363.448 128.471C363.448 128.471 374.738 128.361 378.298 128.361C383.398 128.361 385.518 126.921 385.658 124.121C385.798 121.391 383.888 119.351 378.538 119.351L318.258 118.771C314.138 118.731 310.608 121.701 309.938 125.771L306.808 144.851Z" fill="white"/>
<path d="M350.027 136.041C342.957 136.041 336.347 130.871 334.407 128.821C334.217 128.621 334.227 128.301 334.427 128.111C334.627 127.921 334.947 127.931 335.137 128.131C336.827 129.911 344.717 136.271 352.387 134.821C354.937 134.341 356.607 133.211 356.857 131.791C357.047 130.701 356.377 129.581 355.047 128.791C353.297 127.751 351.297 125.911 349.357 124.131C346.917 121.891 344.387 119.571 343.017 119.521C342.737 119.511 342.527 119.281 342.537 119.001C342.547 118.721 342.807 118.501 343.057 118.521C344.807 118.591 347.227 120.821 350.037 123.401C351.937 125.141 353.897 126.951 355.567 127.931C357.267 128.941 358.117 130.451 357.847 131.961C357.517 133.831 355.597 135.231 352.577 135.801C351.707 135.971 350.857 136.041 350.027 136.041Z" fill="#505052"/>
<path d="M354.257 131.531C353.297 131.531 352.267 131.231 351.367 130.771C350.137 130.131 349.277 128.931 349.117 127.631C348.977 126.461 349.437 125.351 350.397 124.521C350.607 124.341 350.917 124.361 351.107 124.571C351.297 124.781 351.267 125.091 351.057 125.281C350.147 126.061 350.047 126.931 350.117 127.521C350.227 128.481 350.907 129.411 351.827 129.891C353.397 130.701 355.417 130.941 356.157 129.561C356.287 129.321 356.587 129.231 356.837 129.351C357.077 129.481 357.177 129.781 357.047 130.031C356.447 131.101 355.407 131.531 354.257 131.531Z" fill="#505052"/>
<path d="M331.618 141.081C331.178 141.081 330.728 141.061 330.268 141.031C329.988 141.011 329.788 140.771 329.808 140.491C329.828 140.211 330.068 140.011 330.348 140.031C336.148 140.481 339.848 137.951 340.458 133.081C340.488 132.811 340.748 132.621 341.018 132.651C341.288 132.681 341.488 132.931 341.448 133.211C340.818 138.211 337.188 141.081 331.618 141.081Z" fill="#505052"/>
<path d="M363.427 128.981L355.277 128.871C354.997 128.871 354.777 128.641 354.787 128.361C354.787 128.091 355.017 127.871 355.287 127.871C355.287 127.871 355.287 127.871 355.297 127.871L363.447 127.981C363.727 127.981 363.947 128.211 363.937 128.491C363.927 128.761 363.707 128.981 363.427 128.981Z" fill="#505052"/>
<path d="M350.808 138.881C347.228 138.881 344.688 138.231 343.488 136.951C342.778 136.191 342.558 135.251 342.858 134.211C342.938 133.941 343.208 133.791 343.478 133.861C343.748 133.931 343.898 134.211 343.828 134.481C343.628 135.181 343.758 135.761 344.228 136.261C344.948 137.031 348.318 139.331 361.488 136.571C361.748 136.511 362.028 136.691 362.078 136.961C362.138 137.231 361.958 137.501 361.688 137.551C357.448 138.441 353.768 138.881 350.808 138.881Z" fill="#505052"/>
<path d="M351.927 146.801C348.617 146.801 345.707 146.321 344.107 144.811C343.217 143.961 342.787 142.611 343.007 141.261C343.247 139.721 344.257 138.461 345.837 137.691C346.087 137.571 346.387 137.671 346.507 137.921C346.627 138.171 346.527 138.471 346.277 138.591C344.997 139.211 344.187 140.211 343.997 141.411C343.837 142.421 344.157 143.461 344.797 144.081C347.137 146.301 353.347 145.931 358.487 145.361C358.767 145.331 359.007 145.531 359.037 145.801C359.067 146.071 358.867 146.321 358.597 146.351C356.367 146.601 354.067 146.801 351.927 146.801Z" fill="#505052"/>
<path d="M353.408 155.041C353.398 155.041 353.388 155.041 353.378 155.041C352.098 154.961 347.788 154.541 346.268 152.331C345.718 151.531 345.598 150.601 345.928 149.581C346.658 147.281 349.498 146.051 351.828 145.891C352.098 145.871 352.338 146.081 352.358 146.351C352.378 146.631 352.168 146.861 351.898 146.881C349.828 147.021 347.448 148.101 346.888 149.871C346.658 150.591 346.728 151.201 347.108 151.751C348.108 153.211 351.038 153.881 353.448 154.031C353.728 154.051 353.938 154.281 353.918 154.561C353.898 154.841 353.678 155.041 353.408 155.041Z" fill="#505052"/>
<path d="M397.497 88.0209C395.297 90.2209 384.657 100.361 369.957 100.361C355.767 100.361 347.327 87.0109 352.557 74.0009C354.567 69.0309 357.957 64.8609 362.237 62.7209C364.857 61.4109 367.807 60.8509 370.977 61.3309C373.607 61.7309 375.337 62.9409 376.457 64.5509C379.997 69.6509 377.397 78.7309 377.397 78.7309C377.397 78.7309 393.987 70.6009 397.207 74.6209C399.167 77.0709 396.127 80.2609 394.767 81.4609C396.407 80.2809 400.277 77.9909 401.767 80.1609C403.127 82.1309 399.697 85.8309 397.497 88.0209Z" fill="#A2E6CB"/>
<path d="M377.218 77.1109C373.418 78.9609 371.708 83.6109 374.178 85.6909C376.238 87.4309 379.548 86.1509 382.428 84.7109C387.428 82.2109 400.128 74.0709 399.048 72.4409C397.668 70.3609 386.218 72.7409 377.218 77.1109Z" fill="#FF6D54"/>
<path d="M376.688 87.0409C375.648 87.0409 374.678 86.7609 373.858 86.0809C372.838 85.2209 372.378 83.9309 372.568 82.4509C372.858 80.1409 374.638 77.8209 377.008 76.6709C385.488 72.5509 397.758 69.6109 399.468 72.1709C399.578 72.3309 399.678 72.6009 399.578 72.9809C398.858 75.7109 386.468 83.2609 382.658 85.1609C380.688 86.1509 378.558 87.0409 376.688 87.0409ZM377.218 77.1109L377.438 77.5609C375.368 78.5709 373.808 80.5809 373.558 82.5609C373.458 83.3709 373.538 84.5009 374.498 85.3109C376.358 86.8709 379.588 85.5709 382.208 84.2709C388.198 81.2809 398.668 74.0809 398.608 72.6809C397.598 71.1809 386.948 72.9509 377.438 77.5709L377.218 77.1109Z" fill="#505052"/>
<path d="M367.018 69.8409C364.408 69.8409 363.108 74.9409 365.608 74.9409C367.988 74.9409 369.078 69.8409 367.018 69.8409Z" fill="#505052"/>
<path d="M340.407 81.8509C340.337 81.8509 340.257 81.8309 340.197 81.8009C339.947 81.6809 339.837 81.3809 339.957 81.1309C342.127 76.5609 345.987 73.9309 350.897 73.6309C348.407 71.5509 343.447 66.0909 344.807 58.6609C344.857 58.3909 345.117 58.2109 345.387 58.2609C345.657 58.3109 345.837 58.5709 345.787 58.8409C344.227 67.3509 351.677 73.2409 352.537 73.6009L352.907 73.7609L352.897 74.1909C352.817 74.6209 352.427 74.6109 352.107 74.6109C346.947 74.5209 343.067 76.9309 340.867 81.5609C340.777 81.7409 340.597 81.8509 340.407 81.8509Z" fill="#505052"/>
<path d="M376.548 64.5509C376.548 64.5509 376.518 64.5509 376.458 64.5509C375.338 62.9409 373.608 61.7309 370.978 61.3309C367.808 60.8509 364.858 61.4109 362.238 62.7209C362.228 62.7009 362.238 62.6909 362.238 62.6709C362.778 59.7109 365.258 55.6909 367.348 55.8309C369.788 55.9909 367.998 59.9809 368.158 59.9809C368.398 59.9809 370.448 55.2309 373.048 55.7509C375.488 56.2409 373.148 60.3209 373.448 60.4709C373.778 60.6409 375.388 56.9209 377.608 58.1109C379.728 59.2509 376.548 64.5509 376.548 64.5509Z" fill="#FF6D54"/>
<path d="M376.828 65.0509H376.198L376.048 64.8409C374.898 63.1909 373.168 62.1709 370.908 61.8309C367.978 61.3909 365.138 61.8409 362.468 63.1709L362.018 63.4009L361.718 62.7909L361.748 62.5909C362.298 59.5509 364.888 55.1809 367.378 55.3409C368.148 55.3909 368.558 55.7609 368.768 56.0609C369.068 56.4909 369.158 57.0509 369.128 57.6209C370.098 56.3009 371.478 54.9409 373.138 55.2709C373.718 55.3909 374.138 55.6709 374.388 56.1209C374.778 56.8009 374.688 57.7009 374.488 58.5409C375.308 57.6909 376.468 56.9509 377.838 57.6909C378.288 57.9309 378.588 58.3209 378.738 58.8509C379.298 60.8809 377.208 64.4309 376.978 64.8309L376.828 65.0509ZM368.728 60.6509C369.498 60.6509 370.268 60.7109 371.048 60.8309C373.338 61.1809 375.148 62.1409 376.438 63.7009C377.108 62.4509 378.088 60.2409 377.768 59.0809C377.698 58.8209 377.568 58.6509 377.358 58.5409C376.218 57.9309 375.268 59.0209 374.388 60.1909C373.988 60.7209 373.668 61.1409 373.208 60.9009C372.738 60.6709 372.908 60.1909 373.148 59.4709C373.408 58.6909 373.898 57.2509 373.518 56.5909C373.448 56.4709 373.308 56.3009 372.938 56.2209C371.278 55.8909 369.668 58.5009 368.988 59.6209C368.608 60.2509 368.478 60.4609 368.148 60.4609H367.898L367.738 60.2609C367.568 60.0409 367.628 59.8409 367.758 59.4009C367.928 58.8109 368.388 57.2409 367.938 56.6109C367.858 56.5009 367.708 56.3409 367.298 56.3209C365.788 56.2009 363.718 59.1709 362.938 61.8309C364.808 61.0509 366.748 60.6509 368.728 60.6509Z" fill="#505052"/>
<path d="M369.618 119.531C369.588 119.531 369.568 119.531 369.538 119.521C369.268 119.481 369.078 119.221 369.118 118.951L372.048 100.271C372.088 100.001 372.348 99.8109 372.618 99.8509C372.888 99.8909 373.078 100.151 373.038 100.421L370.108 119.101C370.078 119.351 369.858 119.531 369.618 119.531Z" fill="#505052"/>
<path d="M360.068 119.531C360.038 119.531 360.018 119.531 359.988 119.521C359.718 119.481 359.528 119.221 359.568 118.951L362.608 99.4009C362.648 99.1309 362.908 98.9409 363.178 98.9809C363.448 99.0209 363.638 99.2809 363.598 99.5509L360.558 119.101C360.518 119.351 360.308 119.531 360.068 119.531Z" fill="#505052"/>
<path d="M208.357 238.121C208.077 238.121 207.857 237.901 207.857 237.621V168.881C207.857 168.601 208.077 168.381 208.357 168.381C208.637 168.381 208.857 168.601 208.857 168.881V237.621C208.857 237.891 208.627 238.121 208.357 238.121Z" fill="#505052"/>
<path d="M106.057 213.031C105.927 213.031 105.797 212.981 105.697 212.881C105.507 212.681 105.507 212.361 105.707 212.171L165.327 154.831C165.527 154.641 165.847 154.641 166.037 154.841C166.227 155.041 166.227 155.361 166.027 155.551L106.407 212.891C106.307 212.991 106.177 213.031 106.057 213.031Z" fill="#505052"/>
<path d="M184.248 107.801C184.188 107.801 184.128 107.791 184.078 107.771L153.718 96.6209C153.458 96.5209 153.328 96.2409 153.418 95.9809C153.508 95.7209 153.798 95.5909 154.058 95.6809L184.418 106.831C184.678 106.931 184.808 107.211 184.718 107.471C184.638 107.681 184.448 107.801 184.248 107.801Z" fill="#505052"/>
<path d="M268.337 18.6809C265.087 27.4709 244.347 44.0509 235.727 42.6409C235.607 42.6209 235.487 42.6009 235.377 42.5809C226.637 41.0009 223.317 35.0209 224.317 29.2809C225.467 22.7309 231.357 17.7009 233.287 14.6809L261.097 17.8509L268.337 18.6809Z" fill="#FF6D54"/>
<path d="M236.768 43.2209C236.368 43.2209 235.998 43.1909 235.638 43.1309L235.278 43.0709C225.978 41.3909 222.818 34.8909 223.818 29.1909C224.678 24.3009 228.108 20.2309 230.608 17.2709C231.548 16.1609 232.348 15.2009 232.858 14.4109L233.028 14.1509L269.018 18.2609L268.798 18.8609C265.558 27.6309 246.048 43.2209 236.768 43.2209ZM233.528 15.2109C232.988 16.0009 232.228 16.9009 231.368 17.9209C228.938 20.8009 225.618 24.7409 224.798 29.3709C223.958 34.2009 226.248 40.4309 235.458 42.0909L235.798 42.1509C243.798 43.4609 263.728 27.9009 267.618 19.1109L233.528 15.2109Z" fill="#505052"/>
<path d="M269.498 33.8909C266.778 36.0709 264.828 34.5509 264.498 35.5209C264.178 36.5009 261.568 45.9509 257.118 48.8809C254.258 50.7609 251.008 50.7809 250.868 50.7809L248.108 58.1109C248.108 58.1109 241.158 59.7409 235.828 61.4809C230.138 63.3409 224.398 67.4609 224.538 67.1209C227.008 61.0609 231.628 50.8709 235.378 42.5809C238.548 35.5909 241.108 29.9509 241.258 29.2809C241.398 28.6509 240.108 29.8909 237.898 27.9209C234.968 25.3109 235.398 17.9409 241.158 18.6909C244.058 19.0709 244.838 22.3109 244.518 23.9009C244.198 25.5009 247.238 26.2909 248.108 24.9909C249.458 22.9609 250.388 20.4309 252.668 20.1609C255.848 19.7809 258.698 19.2209 261.098 17.8509L268.338 18.6809L268.528 18.7009C268.638 23.9509 267.188 27.7609 266.348 29.4409C265.258 31.6109 270.198 33.3309 269.498 33.8909Z" fill="white"/>
<path d="M224.508 67.6509C224.398 67.6509 224.318 67.6009 224.208 67.5109L223.928 67.2809L224.068 66.9309C226.448 61.0809 230.918 51.2109 234.508 43.2809L235.078 42.0209C237.598 36.4709 239.988 31.1909 240.618 29.6009C239.948 29.6109 238.908 29.4909 237.568 28.2909C235.708 26.6309 235.068 23.1909 236.168 20.7709C237.058 18.8309 238.898 17.8809 241.228 18.1909C242.398 18.3409 243.388 18.9409 244.078 19.9009C245.018 21.2209 245.228 22.9409 245.018 23.9909C244.908 24.5509 245.558 24.8709 245.758 24.9609C246.428 25.2409 247.358 25.2209 247.698 24.7109C247.978 24.2909 248.238 23.8509 248.498 23.4109C249.518 21.6909 250.568 19.9009 252.618 19.6609C255.448 19.3209 258.398 18.8209 260.858 17.4109L260.998 17.3309L269.028 18.2409L269.038 18.6809C269.158 24.3209 267.518 28.2309 266.808 29.6509C266.358 30.5509 267.508 31.4609 268.828 32.3909C269.598 32.9309 270.068 33.2609 270.078 33.7309C270.088 33.9409 269.998 34.1309 269.818 34.2709C268.038 35.6909 266.518 35.6609 265.608 35.6509C265.368 35.6509 265.048 35.6409 264.968 35.6809L264.888 35.9909C262.248 44.6509 259.358 48.0009 257.408 49.2909C254.948 50.9109 252.198 51.2109 251.238 51.2609L248.498 58.5309L248.238 58.5909C248.168 58.6109 241.248 60.2409 235.998 61.9509C231.988 63.2609 227.938 65.7209 225.998 66.9009C225.078 67.4409 224.728 67.6509 224.508 67.6509ZM241.078 28.5809C241.268 28.5809 241.468 28.6209 241.618 28.8009C241.708 28.9109 241.808 29.1009 241.738 29.3909C241.588 30.0709 239.558 34.5609 235.988 42.4309L235.418 43.6909C232.088 51.0509 228.008 60.0709 225.538 66.0009C227.548 64.7809 231.608 62.3309 235.668 61.0109C240.378 59.4709 246.418 58.0009 247.728 57.6909L250.518 50.2809H250.868C250.998 50.2809 254.108 50.2609 256.848 48.4609C258.668 47.2609 261.368 44.0809 263.918 35.7009L264.018 35.3609C264.268 34.6209 264.988 34.6409 265.618 34.6509C266.438 34.6709 267.538 34.6909 268.908 33.7109C268.728 33.5609 268.458 33.3709 268.238 33.2209C267.038 32.3709 265.028 30.9609 265.908 29.2209C266.568 27.9009 268.068 24.3309 268.038 19.1509L261.208 18.3709C258.628 19.8009 255.608 20.3209 252.738 20.6609C251.188 20.8409 250.298 22.3409 249.358 23.9309C249.088 24.3809 248.818 24.8409 248.528 25.2709C247.868 26.2509 246.408 26.3209 245.368 25.8909C244.368 25.4709 243.848 24.6709 244.028 23.8009C244.198 22.9309 243.998 21.5209 243.258 20.4909C242.718 19.7409 241.998 19.3009 241.098 19.1809C238.678 18.8709 237.578 20.1009 237.078 21.1909C236.158 23.2109 236.698 26.1809 238.238 27.5409C239.518 28.6809 240.398 28.6209 240.868 28.5809C240.928 28.5809 240.998 28.5809 241.078 28.5809Z" fill="#505052"/>
<path d="M262.598 40.9609C262.578 40.9609 262.548 40.9609 262.528 40.9509C257.528 40.2209 255.558 36.1609 255.628 35.2009C255.658 34.8109 255.938 34.6309 256.188 34.6309C256.628 34.6309 262.428 35.5509 264.198 35.8309C264.468 35.8709 264.658 36.1309 264.618 36.4009C264.578 36.6709 264.318 36.8609 264.048 36.8209C261.708 36.4509 258.138 35.8909 256.748 35.7009C257.198 36.8209 258.978 39.4209 262.678 39.9609C262.948 40.0009 263.138 40.2509 263.098 40.5309C263.058 40.7809 262.848 40.9609 262.598 40.9609Z" fill="#505052"/>
<path d="M250.867 51.2809C250.847 51.2809 250.827 51.2809 250.807 51.2809C246.987 50.8009 244.177 49.3709 242.477 47.0309C240.187 43.8809 240.487 39.9809 240.877 37.9309C240.927 37.6609 241.197 37.4809 241.457 37.5309C241.727 37.5809 241.907 37.8409 241.857 38.1109C241.497 40.0009 241.207 43.5909 243.287 46.4309C244.827 48.5409 247.397 49.8409 250.937 50.2809C251.207 50.3109 251.407 50.5609 251.367 50.8409C251.337 51.0909 251.117 51.2809 250.867 51.2809Z" fill="#505052"/>
<path d="M241.978 26.2209C241.758 26.2209 241.518 26.1709 241.248 26.1209C240.688 26.0009 239.998 25.8609 239.178 26.0209C238.918 26.0809 238.648 25.9009 238.588 25.6309C238.538 25.3609 238.708 25.1009 238.978 25.0409C239.998 24.8309 240.868 25.0209 241.448 25.1409C241.478 25.1509 241.518 25.1509 241.548 25.1609C241.508 25.0909 241.468 25.0309 241.428 24.9609C240.958 24.2109 240.248 23.0809 240.108 21.6709C240.078 21.4009 240.278 21.1509 240.558 21.1209C240.828 21.1009 241.078 21.2909 241.108 21.5709C241.228 22.7509 241.838 23.7209 242.278 24.4309C242.678 25.0709 242.998 25.5809 242.588 26.0009C242.418 26.1609 242.208 26.2209 241.978 26.2209Z" fill="#505052"/>
<path d="M254.858 25.0909C252.588 24.5809 251.318 29.6209 253.338 30.0309C255.598 30.5009 257.138 25.6109 254.858 25.0909Z" fill="#505052"/>
<path d="M284.107 20.9809C284.087 20.9809 284.067 20.9809 284.047 20.9809L215.467 13.1609C215.197 13.1309 214.997 12.8809 215.027 12.6109C215.057 12.3309 215.317 12.1409 215.577 12.1709L284.157 19.9909C284.427 20.0209 284.627 20.2709 284.597 20.5409C284.567 20.7909 284.357 20.9809 284.107 20.9809Z" fill="#505052"/>
<path d="M268.678 18.7309L233.038 14.7009L239.178 2.52091C239.858 1.35091 241.138 0.690908 242.478 0.810908L265.778 3.30091C267.538 3.46091 268.718 4.87091 268.788 6.64091C268.948 10.4009 269.028 15.4409 269.028 18.4309C269.028 18.6109 268.868 18.7509 268.678 18.7309Z" fill="#FFD561"/>
<path d="M268.718 19.2309C268.688 19.2309 268.658 19.2309 268.628 19.2309L232.268 15.1209L238.738 2.30091C239.528 0.930914 240.988 0.180911 242.528 0.320911L265.838 2.81091C267.788 2.99091 269.208 4.56091 269.298 6.63091C269.448 10.2709 269.538 15.3209 269.538 18.4409C269.538 18.6709 269.438 18.8909 269.268 19.0409C269.108 19.1609 268.918 19.2309 268.718 19.2309ZM233.798 14.2809L268.528 18.2109C268.518 15.0909 268.428 10.2009 268.288 6.66091C268.218 5.08091 267.198 3.93091 265.728 3.80091L242.418 1.31091C241.278 1.21091 240.188 1.77091 239.608 2.77091L233.798 14.2809Z" fill="#505052"/>
<path d="M215.338 354.971H38.0278C37.7478 354.971 37.5278 354.751 37.5278 354.471C37.5278 354.191 37.7478 353.971 38.0278 353.971H215.338C215.618 353.971 215.838 354.191 215.838 354.471C215.838 354.751 215.618 354.971 215.338 354.971Z" fill="#505052"/>
</svg>
